<svg xmlns="http://www.w3.org/2000/svg" viewBox="0 0 200 53.74"><defs><clipPath id="a"><path d="M.76 16.6S1 20.64.9 23c-.06 1.78.1 4.73.1 6.48 0 10.44 1.4 23.68 1.4 23.68a44.08 44.08 0 008.29-1.69c6.9-2.1 8.71-2.13 11.45-3.16l4.62-.6 5.35.87 16.36-.14c.64 0 .39-13.75.39-13.75l.62-1-.42-23.3s-.44-3.16-1.74-3.76c-.55-.29-3.16-.15-6 0-1.64.07-3.36.15-4.83.15-4.65 0-11.78-.56-11.78-.56C19.53 4.13 10 .74 2.46.37z" fill="none"/></clipPath><clipPath id="b"><path d="M25.59 43.75V22.68l-.72-2.31.73-9.61a1.16 1.16 0 011.16-1.16l6.8.35 2.17-.15 9.7-.2a1.16 1.16 0 011.15 1.16v33a1.16 1.16 0 01-1.16 1.16H41.8s-6.23-.53-8.11-.53-6.94.52-6.94.52a1.15 1.15 0 01-1.16-1.16M.56 16.6S.78 20.64.7 23c0 1.82.15 4.77.15 6.52 0 10.44 1.4 23.68 1.4 23.68a44.08 44.08 0 008.29-1.69c6.89-2.1 8.71-2.13 11.44-3.16l4.62-.6 5.36.87 16.35-.14c.64 0 .39-13.75.39-13.75l.63-1-.43-23.3s-.44-3.16-1.74-3.76c-.55-.29-3.16-.15-6 0-1.63.07-3.35.15-4.82.15-4.66 0-11.79-.56-11.79-.56C19.33 4.13 9.83.74 2.26.37z" fill="none"/></clipPath></defs><path d="M25.9 17.24" fill="#dfe6c2"/><g clip-path="url(#a)"><path d="M51.26 37.22C50.34 33.08 46.47 25 38 26.63c-3.4.65-5.63 4.64-6.65 8.6A6 6 0 0129.81 33c-.72-2.16-4.43-1.68-3.38 1.45.6 1.82 2.69 3.16 4.31 4a12.15 12.15 0 00.11 3.54c.93 4.14 6.27 5.49 11.81 4.26s9.52-4.83 8.6-9" fill="#fccf00"/><path d="M51.26 37.22C50.34 33.08 46.47 25 38 26.63c-3.4.65-5.63 4.64-6.65 8.6A6 6 0 0129.81 33c-.72-2.16-4.43-1.68-3.38 1.45.6 1.82 2.69 3.16 4.31 4a12.15 12.15 0 00.11 3.54c.93 4.14 6.27 5.49 11.81 4.26s9.52-4.89 8.6-9.03z" fill="none" stroke="#b79c4a" stroke-width=".113"/><path d="M44.56 31.47c.45 1.09.24 2.22-.48 2.52s-1.68-.35-2.08-1.44-.24-2.23.48-2.52 1.67.34 2.13 1.44" fill="#fff"/><path d="M44.18 31.56c.32.78.16 1.59-.36 1.8s-1.19-.24-1.52-1-.16-1.58.35-1.8 1.2.25 1.53 1" fill="#575032"/><path d="M36.72 33.71c.06 1.19-.53 2.18-1.31 2.22S34 35 33.9 33.84s.54-2.17 1.32-2.2 1.45.89 1.5 2.07" fill="#fff"/><path d="M36.34 33.68c0 .84-.39 1.54-1 1.57s-1-.64-1.09-1.48.39-1.54 1-1.57 1 .64 1.09 1.48" fill="#575032"/><path d="M43.18 35.33a4.64 4.64 0 01-2.69 4.45 3.21 3.21 0 01-3.81-2.46z" fill="#e41d1f"/><path d="M43.18 35.33a4.64 4.64 0 01-2.69 4.45 3.21 3.21 0 01-3.81-2.46z" fill="none" stroke="#c18751" stroke-width=".113"/></g><path d="M47.34 34.77c.11.43-.46.94-1.26 1.14s-1.55 0-1.66-.41.46-.94 1.27-1.14 1.54 0 1.65.41" fill="#ea7ea8"/><path d="M2.74 52.52c0-.39-.09-.94-.16-1.64-.13-1.4-.3-3.38-.48-5.69-.35-4.6-.7-10.51-.7-15.71 0-1.78-.2-4.73-.14-6.5.07-2.2-.11-5.85-.14-6.35L2.73.77h2.46c6.86.92 14.61 4.14 19.13 5.95l.2-.52-.2.51h.16s7.13.56 11.83.56c2 0 4.55-.15 6.64-.24 1 0 2-.08 2.71-.07H46.89c.35.11.82.94 1.06 1.76.12.41.21.81.27 1.1 0 .14.05.27.07.35s0 .07 0 .09l.43 23.1-.54.87-.09.14v6.99c0 1.72 0 3.42-.11 4.7 0 .63-.07 1.16-.12 1.5v.12L32 48l-5.31-.86h-.16l-4.62.6.07.55-.07-.55h-.12c-2.64 1-4.5 1-11.42 3.15h-.16l-.6.17c-.52.14-1.23.33-2.05.53a33.71 33.71 0 01-4.76.86m42.68-7.05a1.7 1.7 0 001.71-1.71v-33a1.7 1.7 0 00-1.71-1.71l-9.69.2-2.14.14-6.77-.34V9A1.72 1.72 0 0025 10.72l-.72 9.6h.55l-.55-.05V20.48l.7 2.24v21a1.72 1.72 0 001.72 1.72h.87l1.94-.18c1.5-.13 3.24-.26 4.13-.26s2.94.13 4.72.26l2.34.18.73.06H45.37M26.6 47.71l.09-.54-.09.54m15.15-2.24v-.55.55M35.69 9.25v.53-.55m9.72-.2v.55-.55m-18.65.57v-.55.55m20.39-3l-.23.51.22-.49" fill="#a27339"/><path d="M1.69 53.22l.56-.06v.56h-.53l-.06-.52m.56-.06l-.56.06S.29 40 .29 29.48H1.4c0 5.2.35 11.11.7 15.71.18 2.31.35 4.29.48 5.69.07.7.12 1.25.16 1.64a33.71 33.71 0 004.76-.86c.82-.2 1.53-.39 2.05-.53l.6-.17h.16c6.92-2.11 8.78-2.16 11.42-3.15h.12l.07.55-.07-.55 4.62-.6h.16L32 48l15.94-.14v-.12c0-.34.09-.87.12-1.5.07-1.28.1-3 .11-4.7s0-3.43 0-4.72v-1.99V34.54l.09-.14.54-.87-.43-23.1a.51.51 0 000-.09c0-.08 0-.21-.06-.35-.06-.29-.15-.69-.27-1.1-.24-.82-.71-1.65-1.06-1.76h-1.23C44.94 7 44 7 43 7.08c-2.09.09-4.59.24-6.64.24-4.69 0-11.82-.56-11.83-.56H24.32l.2-.51-.2.52C19.8 4.91 9.59 1.69 2.73.77L1.74 0C9 .47 21.31 4.32 24.66 5.65h.22l.87.06 2.95.19c2.36.14 5.3.29 7.61.29 2 0 4.49-.15 6.59-.24 1.06 0 2-.09 2.78-.08a4.69 4.69 0 011.71.22 3.94 3.94 0 011.63 2.43 11.07 11.07 0 01.4 1.75l-.58.07.55-.07v.06l.42 23.3v.17l-.01.2-.54.87c0 .72.06 3.72 0 6.72 0 1.73 0 3.45-.1 4.75 0 .66-.08 1.2-.14 1.61a3.06 3.06 0 01-.11.53 1.09 1.09 0 01-.13.27.63.63 0 01-.5.27L32 49.14v-.56l-.09.56-5.28-.86-4.48.58c-2.8 1-4.6 1.07-11.41 3.15a44.84 44.84 0 01-8.42 1.71v-.56m45.81-4.96h-.06.06m0 0h-.06.06m-21.53-.48l.09-.55-.09.54M46.93 7.13l.23-.51-.22.49m-15.06 42l.09-.56v.56h-.09m9.93-3.67h-.32l-.73-.06-2.34-.18c-1.78-.13-3.82-.26-4.72-.26-.89 0-2.63.13-4.13.26l-1.94.18h-.87A1.72 1.72 0 0125 43.75v-21l-.7-2.24V20.3l.55.05h-.55l.72-9.6A1.72 1.72 0 0126.75 9v.6-.55.55V9l6.77.34 2.14-.14 9.69-.2a1.71 1.71 0 011.71 1.71H46a.59.59 0 00-.17-.42.6.6 0 00-.42-.18l-9.67.2-2.17.14h-.06l-6.78-.34a.6.6 0 00-.42.18.56.56 0 00-.17.42l-.71 9.5.69 2.22-.53.16.53-.16V43.75a.6.6 0 00.17.43.59.59 0 00.4.17c.43 0 5.12-.52 7-.52s7.65.49 8.12.53h3.61a.6.6 0 00.42-.18.58.58 0 00.18-.42v-33h1.12v33a1.7 1.7 0 01-1.71 1.71H41.8m0 0v-.55.57m-6-35.67v-.53.55m9.7-.13v-.66V9.67M.29 29.48c0-1.71-.2-4.67-.14-6.53h1.11L.15 23v-4c0-.65 0-1.23-.06-1.64v-.65H0v-.09l.54.06-.54-.14L1.74 0l1 .77-1.62 15.86c0 .5.21 4.15.14 6.35-.06 1.77.14 4.72.14 6.5H.29" fill="#b9a68c"/><path d="M7.48 26a2.06 2.06 0 01-2.36 2.35A2.36 2.36 0 117.48 26" fill="#b5956c"/><path d="M33.78 35.22c.1.41-.44.89-1.2 1.08s-1.47 0-1.57-.39.44-.89 1.2-1.08 1.47 0 1.57.39" fill="#ea7ea8"/><g clip-path="url(#b)" fill="#b5956c"><path d="M13 17.18l-1.49-.07-7.2-1.34H3.5a11.61 11.61 0 01-2.68-.07l-.08.57a11 11 0 002.74.08h.75l7.22 1.34 1.55.08a10.38 10.38 0 012.42.2l3.51.66 1.33-.32-4.76-.91a11.61 11.61 0 00-2.5-.22M14.38 46.26l-1.52.38-7.61 1.24-.82.24a16.55 16.55 0 01-2.71.72l.08.39a18.37 18.37 0 002.77-.74l.75-.23L12.93 47l1.59-.4a18.3 18.3 0 012.48-.53l3.71-.6 1.29-.59-5 .8a17.3 17.3 0 00-2.55.58M15.82 6.39l1 .25 5.25.86.55.15a12.6 12.6 0 001.86.48l-.07.24a13.82 13.82 0 01-1.9-.49L22 7.73l-5.25-.85-1.05-.27a15.33 15.33 0 00-1.7-.38l-2.55-.41-.85-.38 3.47.56a12.14 12.14 0 011.75.39M39.62 46.72l1.07.06 5.31-.13.58.05a12.23 12.23 0 001.91.13v.25a14.23 14.23 0 01-2-.13L46 46.9l-5.34.1h-1.11s-.4-.05-1.75-.05l-2.59.05-.89-.21 3.5-.1a15.78 15.78 0 011.8.06"/><path d="M37.35 8l-1.57.08-7.71-.28-.84.08a18.2 18.2 0 01-2.8.18v.39a16.36 16.36 0 002.87-.19l.78-.07 7.71.27 1.63-.09A19.85 19.85 0 0140 8.3l3.75.13 1.34-.33L40 7.91a20.54 20.54 0 00-2.65.09M11.49 41.84h1.21l6-.27.66.06a13.15 13.15 0 002.17.13v.31a13.7 13.7 0 01-2.25-.07l-.61-.05-6 .26-1.27-.06a17.14 17.14 0 00-2 0l-2.9.13-1-.25 3.93-.19a11.66 11.66 0 012 .05"/><path d="M31.15 41.54l-1.21.08-6-.17-.66.07a13.36 13.36 0 01-2.16.16V42a14.06 14.06 0 002.22-.16l.6-.06 6 .16 1.26-.08a16.43 16.43 0 012-.07l2.9.08 1-.27-3.93-.12a14.35 14.35 0 00-2 .07M11 20.47l1.57.07 7.65.92h.85a18.5 18.5 0 012.8.09v-.35a21 21 0 00-2.87-.09h-.78l-7.66-.92-1.56-.07A21.52 21.52 0 018.42 20l-3.72-.49-1.36.17 5.05.62a21.92 21.92 0 002.61.17M12.16 21.63h-1.21L5 21h-.64a12.68 12.68 0 01-2.18 0v.31a12.14 12.14 0 002.22 0H5l5.93.61h1.26a15.41 15.41 0 012 .07l2.89.3 1.06-.19-3.92-.42a12 12 0 00-2-.07M12.6 39.6h-1.21L5.45 39H4.8a12.7 12.7 0 01-2.18 0v.31a12.26 12.26 0 002.23 0h.6l5.94.61h1.26a15.4 15.4 0 012 .07l2.88.3 1.06-.19-3.91-.42a13.75 13.75 0 00-2-.07M27.15 37.06l1.21.08 6-.17.64.03a13.4 13.4 0 002.17.16v.31a14.06 14.06 0 01-2.22-.16l-.6-.07-6 .17-1.26-.08a14.49 14.49 0 00-2-.08l-2.9.08-1-.26 3.94-.07a14.9 14.9 0 012 .08"/></g><path d="M46.58 43.76a1.16 1.16 0 01-1.16 1.16H41.8s-6.23-.53-8.11-.53-6.94.52-6.94.52a1.15 1.15 0 01-1.16-1.16V22.68l-.72-2.31.73-9.61a1.16 1.16 0 011.15-1.16l6.81.35 2.17-.15 9.7-.2a1.16 1.16 0 011.15 1.16v33m2.75-10.08l-.43-23.3s-.44-3.16-1.74-3.76c-.87-.45-6.8.14-10.85.14-4.66 0-11.79-.56-11.79-.56C19.33 4.13 9.83.74 2.26.37L.56 16.6S.78 20.64.7 23c0 1.82.15 4.77.15 6.52 0 10.44 1.4 23.68 1.4 23.68a44.28 44.28 0 008.29-1.69c6.89-2.1 8.71-2.13 11.44-3.16l4.62-.6 5.36.87 16.35-.14c.64 0 .39-13.75.39-13.75l.63-1" fill="none" stroke="#b9a68c" stroke-linecap="round" stroke-linejoin="round" stroke-width=".564"/><path d="M68 41.68a15.87 15.87 0 01.84 1.43c0-.44-.08-1.11-.08-1.57v-3.8a10.15 10.15 0 00-.11-1.81h2.2a13.15 13.15 0 00-.09 1.82v6.64a11.84 11.84 0 00.09 1.74h-2.32a11.57 11.57 0 00-.83-1.47l-2.83-4.29a12.47 12.47 0 01-.79-1.4v5.25a12.27 12.27 0 00.1 1.92h-2.1a13.07 13.07 0 00.1-1.93v-6.53a13 13 0 00-.1-1.75h2.29a6.62 6.62 0 00.79 1.44zM72.07 46.13a10.89 10.89 0 00.1-1.73v-6.79a12.14 12.14 0 00-.1-1.72h4.3a3.67 3.67 0 012.77.94 3.16 3.16 0 01.8 2.26 3.38 3.38 0 01-.87 2.42 3.63 3.63 0 01-2.73 1h-2.15v1.85a12.67 12.67 0 00.09 1.76zm4.22-5.38a1.42 1.42 0 001.56-1.56 1.37 1.37 0 00-1.56-1.49h-2.1v3zM88.87 37a5.57 5.57 0 011.41 4c0 3.24-1.89 5.36-4.77 5.36s-4.77-2.1-4.77-5.35 1.87-5.29 4.77-5.29A4.44 4.44 0 0188.87 37m-.71 4a3.87 3.87 0 00-.9-2.78 2.38 2.38 0 00-1.75-.71c-1.64 0-2.67 1.35-2.67 3.47s1 3.55 2.68 3.55 2.64-1.33 2.64-3.53M125.41 34.26a8.42 8.42 0 00-.44-1.79l2.46-.4a13.69 13.69 0 00.23 1.79l.3 1.66 3.94-.63a8.75 8.75 0 001.8-.42l.39 2.29a16.09 16.09 0 00-1.8.25l-3.94.63.56 3.13 4.39-.71a16.5 16.5 0 001.95-.43l.41 2.28a4.2 4.2 0 00-.86.1 1.36 1.36 0 00-.3 0l-.75.11-4.45.73.68 3.7a11 11 0 00.44 2l-2.5.46a14.84 14.84 0 00-.24-2l-.68-3.76-4.61.74a16.1 16.1 0 00-1.91.42l-.38-2.34a11.73 11.73 0 002-.19l4.54-.75-.57-3.13-3.48.56a17.6 17.6 0 00-2.06.44l-.37-2.35a18.45 18.45 0 002.06-.21l3.47-.55zM139.45 36.74a22.4 22.4 0 011.84 4.53l-2.12.68a19.2 19.2 0 00-1.7-4.61zm10.73.14a4.53 4.53 0 00-.26 1 16.33 16.33 0 01-2.58 6.35 14.32 14.32 0 01-5.7 4.6 7.16 7.16 0 00-1.49-1.89 11.94 11.94 0 003.17-1.75 11 11 0 004.25-6.62 8.72 8.72 0 00.33-2.2zm-6.74-.88a19.12 19.12 0 011.81 4.39l-2.08.67a20.85 20.85 0 00-1.7-4.49zM165.56 48.84a37.15 37.15 0 00-5.74-5.67 22.53 22.53 0 01-7.12 5.52 6.88 6.88 0 00-1.51-2.12 18.91 18.91 0 006.13-4.12 18.34 18.34 0 003.89-5.74l.09-.21.06-.14a1 1 0 010-.17 3.18 3.18 0 01-.41 0h-.17l-5.6.1a13.79 13.79 0 00-2 .13l-.07-2.42a8.54 8.54 0 001.65.11h.45l6.24-.1a3.93 3.93 0 001.67-.2l1.38 1.69a3.83 3.83 0 00-.6 1 23.17 23.17 0 01-2.73 4.87 39.93 39.93 0 016.19 5.4zm-.71-16.79a12.24 12.24 0 012 2.81l-1.26.7a12.89 12.89 0 00-2-2.84zm2.9 2.31a14 14 0 00-1.91-2.77L167 31a11.28 11.28 0 012 2.67zM171 48.57a13.21 13.21 0 00.12-2.13V34.21a12 12 0 00-.12-2h2.56a17.88 17.88 0 00-.07 2v3.55a54.43 54.43 0 018.49 4l-1.31 2.25a45.27 45.27 0 00-6.62-3.64 5.11 5.11 0 01-.64-.33 10.49 10.49 0 01.08 1.3v5c0 1 0 1.56.07 2.11zm7.71-15.32a12.76 12.76 0 012 2.81l-1.31.7a13.24 13.24 0 00-2-2.84zm2.89 2.31a13.88 13.88 0 00-1.9-2.76l1.25-.67a11 11 0 011.94 2.69zM192.41 37a8 8 0 00-.07 1.55c-.08 3.26-.58 5.09-1.86 6.75a10.83 10.83 0 01-4.82 3.44 6.79 6.79 0 00-1.48-2.18 8.67 8.67 0 003.28-1.62c1.9-1.55 2.5-3.19 2.5-6.79a5.3 5.3 0 00-.09-1.15zm7.59-2.4a5.3 5.3 0 00-.75 1.34 12 12 0 01-2.88 3.83 11 11 0 01-2.24 1.58 6.4 6.4 0 00-1.68-1.73 8.58 8.58 0 002.73-1.76 7.87 7.87 0 001.82-2.45h-9.81a18.48 18.48 0 00-2.54.11v-2.38a15.12 15.12 0 002.58.15h9.75a5.16 5.16 0 001.82-.17zM92.65 38.4a15.68 15.68 0 012.24 1.53L94 41.31a13.93 13.93 0 00-2.23-1.67zm2.2 4.39c-.52 1.46-.69 1.91-1.13 2.9-.12.29-.22.49-.25.57-.19.45-.21.46-.28.62l-1.43-1.25a14.36 14.36 0 001.75-3.79zm-1.66-7.49a14.52 14.52 0 012.18 1.6l-1 1.3a12.74 12.74 0 00-2.17-1.74zm1.55 9.61a3.49 3.49 0 00.42 0h.83a16.5 16.5 0 001.39-3.17h-1.07a11.84 11.84 0 00-1.39.07v-1.7a10.52 10.52 0 001.4.07h1.75v-1.64h-1.33c-.5 0-.93 0-1.35.06V37a9.49 9.49 0 001.36.07h1.32v-.39a8.8 8.8 0 00-.07-1.4h1.74a10.46 10.46 0 00-.06 1.35V37h1.8a10.17 10.17 0 001.33-.07v1.67a9.15 9.15 0 00-1.32-.06h-1.8v1.64h2.17a10.88 10.88 0 001.36-.07v1.69a10.71 10.71 0 00-1.35-.07h-2.78a22.58 22.58 0 01-1.31 3.05 27.62 27.62 0 002.82-.34 17.16 17.16 0 00-1-1.61l1.34-.7A29.23 29.23 0 01103.3 46l-1.47.89c-.24-.54-.32-.7-.51-1.11a41.47 41.47 0 01-4.28.63 18.57 18.57 0 00-2 .27zM110.77 35.44a6.24 6.24 0 00-.08 1.11 9.22 9.22 0 001.37 5.38 8 8 0 002 2.23 7.4 7.4 0 001.65 1.1A6.16 6.16 0 00114.6 47a12.06 12.06 0 01-3.07-2.79 9.86 9.86 0 01-1.65-3.29A7.72 7.72 0 01108 44.6a10.93 10.93 0 01-2.8 2.33 5.44 5.44 0 00-1.08-1.55 8.63 8.63 0 002.35-1.72 7.78 7.78 0 002.05-3.66 16 16 0 00.38-3.5 7.57 7.57 0 00-.06-1zM66.11 22.88a.57.57 0 00.2.46.75.75 0 00.46.15v.61h-5.16v-.61c.48 0 .73-.2.73-.61V7.53c0-.4-.25-.61-.73-.61v-.6h5.16v.6a.76.76 0 00-.46.16.54.54 0 00-.2.45V14L73 8.45c.31-.27.55-.49.73-.66a.7.7 0 00.27-.43.36.36 0 00-.19-.36.58.58 0 00-.34-.11v-.6h7v.6a1.86 1.86 0 00-1.19.51l-7.62 6.19 7 8.21a8 8 0 001 1 3.06 3.06 0 001.14.66v.61h-6.21v-.61c.29 0 .43-.08.43-.24a1.88 1.88 0 00-.46-.74l-5.67-6.66-2.78 2.2zM82.07 23.49c.58 0 .87-.2.87-.61V7.53q0-.6-.87-.6v-.61h5.5v.61c-.57 0-.86.2-.86.6v15.35c0 .41.29.61.86.61v.61h-5.5zM100.39 6.32a10 10 0 013.33.54 7.24 7.24 0 012.68 1.64 7.61 7.61 0 011.78 2.77 10.91 10.91 0 01.65 3.94 10.86 10.86 0 01-.65 3.93 7.74 7.74 0 01-1.78 2.78 7.38 7.38 0 01-2.68 1.64 10 10 0 01-3.33.54H89.61v-.61c.5 0 .75-.2.75-.61V7.53c0-.4-.25-.61-.75-.61v-.6zm-1.3 14.87a11.59 11.59 0 002.66-.27 4.14 4.14 0 001.89-1 4.38 4.38 0 001.12-1.85 9.79 9.79 0 00.37-2.9 9.91 9.91 0 00-.37-2.91 4.28 4.28 0 00-1.12-1.84 4.15 4.15 0 00-1.89-1 11.59 11.59 0 00-2.66-.27h-5v12zM111.55 18.59l.34.17a1.1 1.1 0 00.14.55 2.25 2.25 0 00.93.81 9.26 9.26 0 001.58.71 15.68 15.68 0 001.88.5 9.9 9.9 0 001.76.19c.38 0 .88 0 1.48-.09a9 9 0 001.79-.36 4.81 4.81 0 001.52-.76 1.53 1.53 0 00.65-1.28 1.32 1.32 0 00-.59-1.17 4.51 4.51 0 00-1.56-.55 16.5 16.5 0 00-2.2-.22c-.82 0-1.66-.09-2.51-.16a22.81 22.81 0 01-2.52-.34 7 7 0 01-2.2-.81 4.42 4.42 0 01-1.55-1.55 5 5 0 01-.59-2.57 4.83 4.83 0 01.49-2.11 5 5 0 011.5-1.82 8.36 8.36 0 012.57-1.3 12.06 12.06 0 013.65-.5 15.66 15.66 0 013.11.28 23.38 23.38 0 012.28.58c.64.21 1.18.41 1.62.59a2.9 2.9 0 001.1.28.9.9 0 00.67-.21l.41.28L125 12l-.34-.14a2 2 0 00-.27-.8 3.11 3.11 0 00-.89-.81 7.55 7.55 0 00-1.48-.7 10.75 10.75 0 00-1.82-.5 10 10 0 00-2-.19 10.28 10.28 0 00-1.54.12 7 7 0 00-1.43.36 3 3 0 00-1.07.64 1.29 1.29 0 00-.42 1 1.42 1.42 0 00.59 1.24 4.07 4.07 0 001.56.62 14.47 14.47 0 002.19.28c.82 0 1.66.1 2.52.17a20.94 20.94 0 012.52.36 7.33 7.33 0 012.19.83 4.42 4.42 0 011.57 1.52 4.78 4.78 0 01.59 2.51 4.47 4.47 0 01-.93 2.93 6.57 6.57 0 01-2.32 1.8 10.15 10.15 0 01-3 .87 21.59 21.59 0 01-3 .23 19.21 19.21 0 01-3.22-.23 10.87 10.87 0 01-2.16-.55 14.13 14.13 0 01-1.37-.58 1.91 1.91 0 00-.88-.26.55.55 0 00-.44.27l-.47-.27zM191.65 6.32a13.4 13.4 0 012.88.28 6.57 6.57 0 012.22.92 4.15 4.15 0 011.43 1.62 5.46 5.46 0 01.49 2.45 4.37 4.37 0 01-1.29 3.41 6.86 6.86 0 01-3.48 1.59l4.41 6.41a.88.88 0 00.55.4 2.39 2.39 0 00.57.07v.61h-6.19v-.61a1.29 1.29 0 00.51-.1c.15-.07.22-.16.22-.27a.82.82 0 00-.13-.39 6.94 6.94 0 00-.4-.59l-3.65-5.28h-4.73v6a.55.55 0 00.21.46 1.48 1.48 0 00.78.15v.61h-5.73v-.61c.64 0 1-.2 1-.61V7.53q0-.6-1-.6v-.61zm-.86 7.91a9.19 9.19 0 002-.19 3.52 3.52 0 001.26-.52 2 2 0 00.66-.8 2.58 2.58 0 000-2 2 2 0 00-.66-.8 3.52 3.52 0 00-1.26-.52 9.19 9.19 0 00-2-.19h-5.73v5zM139.31 6.32a10 10 0 013.32.54 7.16 7.16 0 012.68 1.64 7.63 7.63 0 011.79 2.77 10.91 10.91 0 01.65 3.94 10.86 10.86 0 01-.65 3.93 7.76 7.76 0 01-1.79 2.78 7.29 7.29 0 01-2.68 1.64 10 10 0 01-3.32.54h-10.78v-.61c.49 0 .74-.2.74-.61V7.53c0-.4-.25-.61-.74-.61v-.6zM138 21.19a11.65 11.65 0 002.66-.27 4.1 4.1 0 001.88-1 4.28 4.28 0 001.12-1.85 9.44 9.44 0 00.38-2.9 9.55 9.55 0 00-.38-2.91 4.19 4.19 0 00-1.12-1.84 4.12 4.12 0 00-1.88-1 11.65 11.65 0 00-2.66-.2h-5v12z" fill="#655626"/><path d="M162.55 15.25a5.54 5.54 0 01.6-2.6 6.37 6.37 0 011-1.42 6.52 6.52 0 00-.54-.5 7 7 0 00-2.17-1.19 2.8 2.8 0 00-.31-.09 9.37 9.37 0 00-1.13 1.66 8.5 8.5 0 00-1 4.14 8.5 8.5 0 001 4.14 9.37 9.37 0 001.14 1.66 2.8 2.8 0 00.31-.09 7 7 0 002.17-1.19 5.16 5.16 0 00.54-.5 6.37 6.37 0 01-1-1.42 5.54 5.54 0 01-.6-2.6M178.59 11.11a9.17 9.17 0 00-2.44-2.89 10.8 10.8 0 00-3.3-1.71 11.34 11.34 0 00-7.1 0 10.76 10.76 0 00-1.57.64 10.6 10.6 0 011.73 1.07 8.32 8.32 0 011.29 1.23 7 7 0 012.1-.33 7.51 7.51 0 014.58 1.61 6.13 6.13 0 011.57 1.92 5.54 5.54 0 01.6 2.6 5.54 5.54 0 01-.6 2.6 6.13 6.13 0 01-1.57 1.92 7.24 7.24 0 01-6.68 1.29 8.75 8.75 0 01-1.29 1.22 9.91 9.91 0 01-1.73 1.06 10.6 10.6 0 001.57.6 12.38 12.38 0 007.1 0 10.06 10.06 0 003.3-1.66 9.17 9.17 0 002.44-2.89 8.61 8.61 0 00.95-4.14 8.61 8.61 0 00-.95-4.14" fill="#e6b821"/><path d="M164.72 10.73c-.19.16-.37.33-.54.5a6.37 6.37 0 011 1.42 5.54 5.54 0 01.6 2.6 5.54 5.54 0 01-.6 2.6 6.37 6.37 0 01-1 1.42c.17.17.35.34.54.5a7.28 7.28 0 002.17 1.23l.31.1a9.88 9.88 0 001.15-1.67 8.61 8.61 0 001-4.14 8.61 8.61 0 00-1-4.14 9.41 9.41 0 00-1.15-1.66c-.1 0-.21.05-.31.09a7.28 7.28 0 00-2.17 1.19M161.16 21.06a7.06 7.06 0 01-4.5-.1 7 7 0 01-2.17-1.19 6 6 0 01-1.57-1.92 5.85 5.85 0 010-5.2 6 6 0 011.57-1.92 7 7 0 012.17-1.19 7.22 7.22 0 012.4-.42 7 7 0 012.1.33 8 8 0 011.3-1.23 11 11 0 011.72-1.07 10.32 10.32 0 00-1.57-.64 11.31 11.31 0 00-7.09 0 10.58 10.58 0 00-3.3 1.71 9 9 0 00-2.44 2.89 8.61 8.61 0 00-.95 4.14 8.61 8.61 0 00.95 4.14 9 9 0 002.44 2.89 9.87 9.87 0 003.3 1.66 12.34 12.34 0 007.09 0 10.19 10.19 0 001.57-.6 10.21 10.21 0 01-1.72-1.06 8.35 8.35 0 01-1.3-1.22" fill="#d25c18"/><path d="M161.16 9.45a2.8 2.8 0 01.31.09 7 7 0 012.17 1.19 6.52 6.52 0 01.54.5c.17-.17.35-.34.54-.5a7.28 7.28 0 012.17-1.19c.1 0 .21-.06.31-.09a8.32 8.32 0 00-1.29-1.23 10.6 10.6 0 00-1.73-1.07 11 11 0 00-1.72 1.07 8 8 0 00-1.3 1.23" fill="#e5b723"/><path d="M161.16 9.45a2.8 2.8 0 01.31.09 7 7 0 012.17 1.19 6.52 6.52 0 01.54.5c.17-.17.35-.34.54-.5a7.28 7.28 0 012.17-1.19c.1 0 .21-.06.31-.09a8.32 8.32 0 00-1.29-1.23 10.6 10.6 0 00-1.73-1.07 11 11 0 00-1.72 1.07 8 8 0 00-1.3 1.23" fill="#cd4a18"/><path d="M167.2 21.06l-.31-.1a7.28 7.28 0 01-2.17-1.19 8.63 8.63 0 01-.54-.5 6.52 6.52 0 01-.54.5 7 7 0 01-2.17 1.23l-.31.1a8.35 8.35 0 001.3 1.22 10.21 10.21 0 001.72 1.06 9.91 9.91 0 001.73-1.06 8.75 8.75 0 001.29-1.22" fill="#e5b723"/><path d="M167.2 21.06l-.31-.1a7.28 7.28 0 01-2.17-1.19 8.63 8.63 0 01-.54-.5 6.52 6.52 0 01-.54.5 7 7 0 01-2.17 1.23l-.31.1a8.35 8.35 0 001.3 1.22 10.21 10.21 0 001.72 1.06 9.91 9.91 0 001.73-1.06 8.75 8.75 0 001.29-1.22" fill="#cd4a18"/></svg>